Coordinates
version=1
nRows=13
nColumns=63
inDegrees=yes

Units are S.I. units (second, meters, Newtons, ...)
If the header above contains a line with 'inDegrees', this indicates whether rotational values are in degrees (yes) or radians (no).

endheader
time	pelvis_tilt	pelvis_list	pelvis_rotation	pelvis_tx	pelvis_ty	pelvis_tz	hip_flexion_r	hip_adduction_r	hip_rotation_r	knee_angle_r	knee_angle_r_beta	ankle_angle_r	subtalar_angle_r	mtp_angle_r	hip_flexion_l	hip_adduction_l	hip_rotation_l	knee_angle_l	knee_angle_l_beta	ankle_angle_l	subtalar_angle_l	mtp_angle_l	L5_S1_Flex_Ext	L5_S1_Lat_Bending	L5_S1_axial_rotation	L4_L5_Flex_Ext	L4_L5_Lat_Bending	L4_L5_axial_rotation	L3_L4_Flex_Ext	L3_L4_Lat_Bending	L3_L4_axial_rotation	L2_L3_Flex_Ext	L2_L3_Lat_Bending	L2_L3_axial_rotation	L1_L2_Flex_Ext	L1_L2_Lat_Bending	L1_L2_axial_rotation	L1_T12_Flex_Ext	L1_T12_Lat_Bending	L1_T12_axial_rotation	Abs_r3	Abs_r2	Abs_r1	Abs_t1	Abs_t2	neck_flexion	neck_bending	neck_rotation	arm_flex_r	arm_add_r	arm_rot_r	elbow_flex_r	pro_sup_r	wrist_flex_r	wrist_dev_r	arm_flex_l	arm_add_l	arm_rot_l	elbow_flex_l	pro_sup_l	wrist_flex_l	wrist_dev_l
8.195122	1.387993	11.987977	88.374752	0.206643	1.141880	0.430110	-12.415806	2.599915	9.338874	8.304867	0.144947	21.090787	6.282592	0.000000	-11.596976	-4.179324	-10.953377	13.628338	0.237859	20.739433	0.581876	0.000000	-0.866543	0.901247	5.453478	-1.609257	1.198659	5.794320	-1.423643	2.191292	5.794320	-0.990372	2.191292	4.771793	-0.804672	1.837823	4.430951	-0.495143	1.396032	4.090108	-6.189630	10.195087	30.330606	0.000000	0.000000	-2.342000	16.700844	-45.385262	57.350070	-33.707911	20.311634	123.772748	80.084599	7.542700	31.241935	98.396281	46.352406	180.025289	0.048256	0.576738	-69.914745	-24.592135
8.219512	1.364683	11.580022	88.090607	0.207556	1.142256	0.430125	-12.079558	2.512254	9.362089	8.062438	0.140716	20.853730	6.813789	0.000000	-11.345869	-4.138799	-11.570152	13.306427	0.232241	20.476304	0.932555	0.000000	-0.838983	0.893811	5.645736	-1.558075	1.188769	5.998594	-1.378365	2.173212	5.998594	-0.958874	2.173212	4.940019	-0.779080	1.822659	4.587160	-0.479395	1.384513	4.234302	-5.992772	10.110968	31.399887	0.000000	0.000000	-1.007364	15.656241	-45.587177	51.207983	-33.370355	17.674226	124.750759	79.731502	3.898267	27.269244	94.957622	45.858874	182.405234	0.048186	0.585232	-69.921061	-24.591901
8.243902	1.427429	11.120342	87.836565	0.208079	1.142650	0.430133	-11.682082	2.505231	9.308818	7.826459	0.136597	20.591701	7.422650	0.000000	-11.028797	-4.183622	-12.192226	13.006025	0.226998	20.226064	1.325204	0.000000	-0.806580	0.900379	5.815594	-1.497899	1.197504	6.179068	-1.325130	2.189182	6.179068	-0.921840	2.189182	5.088644	-0.748990	1.836053	4.725170	-0.460880	1.394687	4.361695	-5.761319	10.185270	32.344587	0.000000	0.000000	0.270199	14.322038	-45.575416	44.186715	-32.876429	14.938891	125.554403	80.608279	1.126145	22.686972	90.831703	45.170154	185.095245	0.047287	0.597040	-69.962272	-24.598242
8.268293	1.572396	10.583188	87.643403	0.208138	1.143046	0.430019	-11.205481	2.580204	9.146379	7.585461	0.132391	20.297498	8.107172	0.000000	-10.623332	-4.309969	-12.765114	12.714308	0.221907	19.980480	1.739503	0.000000	-0.765404	0.922661	5.926575	-1.421432	1.227140	6.296986	-1.257482	2.243359	6.296986	-0.874780	2.243359	5.185753	-0.710754	1.881491	4.815342	-0.437352	1.429203	4.444931	-5.467204	10.437331	32.961831	0.000000	0.000000	1.466406	12.697385	-45.139846	36.643253	-32.298271	12.420294	125.911111	81.405870	-0.680454	18.282436	85.699010	44.191460	190.011946	0.029724	0.642313	-76.866599	-24.547287
8.292683	1.710655	10.003937	87.549560	0.208059	1.143227	0.429731	-10.694092	2.673440	8.982984	7.346697	0.128224	20.037846	8.658359	0.000000	-10.165079	-4.442848	-13.219948	12.437526	0.217076	19.776084	2.145580	0.000000	-0.720876	0.943038	5.973716	-1.338739	1.254241	6.347073	-1.184327	2.292903	6.347073	-0.823889	2.292903	5.227001	-0.669405	1.923043	4.853644	-0.411908	1.460766	4.480287	-5.149144	10.667836	33.224015	0.000000	0.000000	2.589284	10.949600	-44.367107	28.852097	-31.530067	10.199441	125.677202	81.606088	-1.699980	14.399275	80.101830	42.710564	193.498043	0.014747	0.676809	-79.009773	-24.507134
8.317073	1.854732	9.402556	87.573841	0.207783	1.143209	0.429295	-10.167395	2.798539	8.804426	7.111647	0.124122	19.809796	9.060604	0.000000	-9.660555	-4.594422	-13.520047	12.197624	0.212889	19.633380	2.520960	0.000000	-0.675401	0.962275	5.944105	-1.254287	1.279826	6.315612	-1.109616	2.339675	6.315612	-0.771916	2.339675	5.201092	-0.627177	1.962271	4.829585	-0.385924	1.490564	4.458079	-4.824322	10.885445	33.059329	0.000000	0.000000	3.565490	9.120903	-43.272963	21.062377	-30.586043	8.342280	124.746918	81.536737	-2.172690	10.983980	74.176833	40.746387	195.623022	-0.007458	0.701695	-77.337397	-24.486014
8.341463	1.994733	8.775297	87.748910	0.207303	1.142968	0.428685	-9.619182	2.952943	8.594726	6.892654	0.120300	19.628178	9.281670	0.000000	-9.093825	-4.762089	-13.629542	12.010761	0.209627	19.572998	2.869082	0.000000	-0.628315	0.977552	5.827324	-1.166845	1.300144	6.191531	-1.032259	2.376820	6.191531	-0.718102	2.376820	5.098908	-0.583454	1.993424	4.734700	-0.359019	1.514228	4.370493	-4.487994	11.058262	32.409826	0.000000	0.000000	4.336027	7.264857	-41.930249	13.552129	-29.492696	6.909386	123.004136	81.495172	-2.510904	8.007173	68.026957	38.312938	196.433528	-0.054353	0.714367	-72.799006	-24.504005
8.365854	2.087873	8.107980	88.021138	0.206775	1.142451	0.427764	-9.043485	3.080696	8.402875	6.691007	0.116780	19.527512	9.341007	0.000000	-8.484577	-4.886891	-13.599364	11.835389	0.206567	19.580433	3.173595	0.000000	-0.577616	0.981272	5.633775	-1.072691	1.305092	5.985886	-0.948966	2.385865	5.985886	-0.660158	2.385865	4.929554	-0.536375	2.001010	4.577443	-0.330050	1.519991	4.225332	-4.125856	11.100347	31.333369	0.000000	0.000000	4.828475	5.427923	-40.416651	6.522956	-28.171868	5.677766	120.263332	81.591497	-2.541482	5.526692	61.700189	35.428510	195.894090	-0.122308	0.721687	-66.373204	-24.602772
8.390244	2.119492	7.409454	88.417433	0.206244	1.141601	0.426454	-8.462008	3.177279	8.198242	6.494770	0.113355	19.519831	9.237607	0.000000	-7.839200	-4.968794	-13.425148	11.679774	0.203851	19.678798	3.472360	0.000000	-0.523847	0.970810	5.365148	-0.972836	1.291177	5.700470	-0.860628	2.360427	5.700470	-0.598705	2.360427	4.694504	-0.486444	1.979676	4.359183	-0.299326	1.503785	4.023861	-3.741787	10.981996	29.839343	0.000000	0.000000	5.055563	3.669849	-38.788558	0.271358	-26.658648	4.610961	116.405800	82.002313	-2.509799	3.543455	55.317133	32.124956	194.130663	-0.176496	0.721551	-58.812769	-24.771335
8.414634	2.072366	6.674369	88.906796	0.205784	1.140394	0.424728	-7.871079	3.219083	8.031001	6.306703	0.110073	19.601320	8.935224	0.000000	-7.169619	-4.978116	-13.079953	11.515642	0.200986	19.837475	3.683163	0.000000	-0.466948	0.943574	5.036297	-0.867169	1.254953	5.351065	-0.767148	2.294205	5.351065	-0.533675	2.294205	4.406760	-0.433608	1.924136	4.091991	-0.266814	1.461596	3.777223	-3.335361	10.673896	28.010372	0.000000	0.000000	5.059197	2.073067	-37.078844	-4.953435	-25.017885	3.886201	111.461773	82.502925	-2.428683	1.997781	49.058937	28.477896	191.168076	-0.132970	0.722659	-50.657322	-24.970840
8.439024	1.959199	5.921562	89.482083	0.205371	1.138860	0.422689	-7.288756	3.216493	7.885222	6.128111	0.106956	19.741951	8.448410	0.000000	-6.480999	-4.928538	-12.544801	11.369617	0.198437	20.052332	3.782217	0.000000	-0.411654	0.902564	4.658362	-0.764482	1.200410	4.949510	-0.676306	2.194493	4.949510	-0.470479	2.194493	4.076067	-0.382262	1.840508	3.784919	-0.235219	1.398071	3.493771	-2.940401	10.209981	25.908412	0.000000	0.000000	4.892883	0.620586	-35.388158	-8.911334	-23.277271	3.558223	105.526033	83.147979	-2.138488	0.974263	43.150707	24.581561	187.071243	0.012538	0.701439	-42.163886	-25.120624
8.463415	1.793696	5.164689	90.044562	0.205049	1.137004	0.420323	-6.720380	3.154719	7.755368	5.975960	0.104300	19.955467	7.933376	0.000000	-5.811975	-4.821706	-11.995915	11.227433	0.195956	20.343352	3.919203	0.000000	-0.359237	0.851318	4.268728	-0.667140	1.132253	4.535524	-0.590191	2.069895	4.535524	-0.410572	2.069895	3.735137	-0.333588	1.736008	3.468342	-0.205268	1.318692	3.201546	-2.565997	9.630282	23.741385	0.000000	0.000000	4.633896	-0.640425	-33.767818	-11.993879	-21.705942	-0.931237	99.384155	88.213677	-2.154467	0.976575	37.734538	20.600289	181.962811	0.307263	0.740026	-33.712056	-25.116206
8.487805	1.540355	4.429381	90.647857	0.204959	1.134934	0.417752	-6.208355	3.019515	7.684666	5.826413	0.101690	20.172117	7.239424	0.000000	-5.166528	-4.633576	-11.314525	11.117081	0.194030	20.639977	3.990553	0.000000	-0.311849	0.783799	3.856763	-0.579135	1.042453	4.097811	-0.512337	1.905729	4.097811	-0.356412	1.905729	3.374668	-0.289583	1.598323	3.133620	-0.178191	1.214105	2.892572	-2.227507	8.866493	21.450161	0.000000	0.000000	4.311607	-1.630626	-32.167282	-13.381345	-20.076211	-2.140043	91.672475	91.075737	-1.947043	0.924305	32.864356	16.594877	176.330281	0.659811	0.764725	-25.564870	-24.876509
